<svg width="179" height="196" viewBox="0 0 179 196" fill="none" xmlns="http://www.w3.org/2000/svg">
<g id="Group 2">
<ellipse id="Ellipse 2" cx="89.5219" cy="89.0199" rx="89.02" ry="89.0199" fill="url(#paint0_linear_1_6039)"/>
<path id="Ellipse 3" d="M120.069 57.004C120.069 73.4432 106.742 86.7699 90.3028 86.7699C73.8635 86.7699 60.5368 73.4432 60.5368 57.004C60.5368 40.5647 73.8635 27.238 90.3028 27.238C106.742 27.238 120.069 40.5647 120.069 57.004Z" stroke="#91181D" stroke-width="4.5"/>
<g id="Ellipse 4">
<mask id="path-3-inside-1_1_6039" fill="white">
<path d="M138.717 147.976C138.717 135.239 133.657 123.024 124.651 114.018C115.645 105.012 103.43 99.9521 90.693 99.9521C77.9563 99.9521 65.7412 105.012 56.735 114.018C47.7287 123.024 42.6691 135.239 42.6691 147.976L90.693 147.976H138.717Z"/>
</mask>
<path d="M138.717 147.976C138.717 135.239 133.657 123.024 124.651 114.018C115.645 105.012 103.43 99.9521 90.693 99.9521C77.9563 99.9521 65.7412 105.012 56.735 114.018C47.7287 123.024 42.6691 135.239 42.6691 147.976L90.693 147.976H138.717Z" stroke="#91181D" stroke-width="9" mask="url(#path-3-inside-1_1_6039)"/>
</g>
</g>
<defs>
<linearGradient id="paint0_linear_1_6039" x1="89.5219" y1="0" x2="89.5219" y2="178.04" gradientUnits="userSpaceOnUse">
<stop stop-color="#E26313"/>
<stop offset="1" stop-color="#FBCE50" stop-opacity="0.5"/>
</linearGradient>
</defs>
</svg>
